STARTFONT 2.1
FONT -artwiz-kates-bold-r-bold--14-140-75-75-m-80-ISO8859-1
SIZE 14 75 75
FONTBOUNDINGBOX 8 15 0 -1
STARTPROPERTIES 24
POINT_SIZE 140
RESOLUTION_X 75
RESOLUTION_Y 75
WEIGHT 14
RESOLUTION 99
X_HEIGHT 14
QUAD_WIDTH 5
FONT_ASCENT 14
FONT_DESCENT 0
FOUNDRY "artwiz"
FAMILY_NAME "kates"
WEIGHT_NAME "bold"
SLANT "r"
SETWIDTH_NAME "normal"
ADD_STYLE_NAME ""
PIXEL_SIZE 14
SPACING "m"
AVERAGE_WIDTH 80
CHARSET_REGISTRY "ISO8859"
CHARSET_ENCODING "1"
COPYRIGHT "artwiz, latin1 and bold chars by Sergio Martins"
_XMBDFED_INFO "Edited with xmbdfed 4.7."
DEFAULT_CHAR 63
_GBDFED_INFO "Edited with gbdfed 1.1."
ENDPROPERTIES
CHARS 210
STARTCHAR char0
ENCODING 0
SWIDTH 548 0
DWIDTH 8 0
BBX 6 12 1 1
BITMAP
FC
FC
FC
FC
FC
FC
FC
FC
FC
FC
FC
FC
ENDCHAR
STARTCHAR char1
ENCODING 1
SWIDTH 548 0
DWIDTH 8 0
BBX 6 5 1 3
BITMAP
30
78
FC
78
30
ENDCHAR
STARTCHAR char2
ENCODING 2
SWIDTH 548 0
DWIDTH 8 0
BBX 6 12 1 1
BITMAP
FC
78
FC
78
FC
78
FC
78
FC
78
FC
78
ENDCHAR
STARTCHAR char9
ENCODING 9
SWIDTH 548 0
DWIDTH 8 0
BBX 0 0 0 0
BITMAP
ENDCHAR
STARTCHAR char10
ENCODING 10
SWIDTH 548 0
DWIDTH 8 0
BBX 0 0 0 0
BITMAP
ENDCHAR
STARTCHAR char11
ENCODING 11
SWIDTH 548 0
DWIDTH 8 0
BBX 5 9 0 5
BITMAP
18
18
18
18
18
18
18
18
F8
ENDCHAR
STARTCHAR char11
ENCODING 12
SWIDTH 548 0
DWIDTH 8 0
BBX 5 7 0 -1
BITMAP
F8
18
18
18
18
18
18
ENDCHAR
STARTCHAR char11
ENCODING 13
SWIDTH 548 0
DWIDTH 8 0
BBX 5 7 3 -1
BITMAP
F8
C0
C0
C0
C0
C0
C0
ENDCHAR
STARTCHAR char11
ENCODING 14
SWIDTH 548 0
DWIDTH 8 0
BBX 5 9 3 5
BITMAP
C0
C0
C0
C0
C0
C0
C0
C0
F8
ENDCHAR
STARTCHAR char15
ENCODING 15
SWIDTH 548 0
DWIDTH 8 0
BBX 7 15 0 -1
BITMAP
18
18
18
18
18
18
18
18
FE
18
18
18
18
18
18
ENDCHAR
STARTCHAR char16
ENCODING 16
SWIDTH 548 0
DWIDTH 8 0
BBX 7 1 0 10
BITMAP
FE
ENDCHAR
STARTCHAR char17
ENCODING 17
SWIDTH 548 0
DWIDTH 8 0
BBX 7 1 0 8
BITMAP
FE
ENDCHAR
STARTCHAR char18
ENCODING 18
SWIDTH 548 0
DWIDTH 8 0
BBX 7 1 0 5
BITMAP
FE
ENDCHAR
STARTCHAR char19
ENCODING 19
SWIDTH 548 0
DWIDTH 8 0
BBX 7 1 0 3
BITMAP
FE
ENDCHAR
STARTCHAR char20
ENCODING 20
SWIDTH 548 0
DWIDTH 8 0
BBX 7 1 0 0
BITMAP
FE
ENDCHAR
STARTCHAR char21
ENCODING 21
SWIDTH 548 0
DWIDTH 8 0
BBX 5 15 3 -1
BITMAP
C0
C0
C0
C0
C0
C0
C0
C0
F8
C0
C0
C0
C0
C0
C0
ENDCHAR
STARTCHAR char22
ENCODING 22
SWIDTH 548 0
DWIDTH 8 0
BBX 5 15 0 -1
BITMAP
18
18
18
18
18
18
18
18
F8
18
18
18
18
18
18
ENDCHAR
STARTCHAR char23
ENCODING 23
SWIDTH 548 0
DWIDTH 8 0
BBX 7 9 0 5
BITMAP
18
18
18
18
18
18
18
18
FE
ENDCHAR
STARTCHAR char24
ENCODING 24
SWIDTH 548 0
DWIDTH 8 0
BBX 7 6 0 0
BITMAP
FE
18
18
18
18
18
ENDCHAR
STARTCHAR char25
ENCODING 25
SWIDTH 548 0
DWIDTH 8 0
BBX 2 15 3 -1
BITMAP
C0
C0
C0
C0
C0
C0
C0
C0
C0
C0
C0
C0
C0
C0
C0
ENDCHAR
STARTCHAR char27
ENCODING 27
SWIDTH 548 0
DWIDTH 8 0
BBX 0 0 0 0
BITMAP
ENDCHAR
STARTCHAR char32
ENCODING 32
SWIDTH 548 0
DWIDTH 8 0
BBX 0 0 0 0
BITMAP
ENDCHAR
STARTCHAR char33
ENCODING 33
SWIDTH 548 0
DWIDTH 8 0
BBX 2 9 3 2
BITMAP
C0
C0
C0
C0
C0
C0
00
C0
C0
ENDCHAR
STARTCHAR char34
ENCODING 34
SWIDTH 548 0
DWIDTH 8 0
BBX 5 3 1 8
BITMAP
D8
D8
D8
ENDCHAR
STARTCHAR char35
ENCODING 35
SWIDTH 548 0
DWIDTH 8 0
BBX 7 10 0 1
BITMAP
6C
6C
FE
FE
6C
FE
FE
6C
6C
6C
ENDCHAR
STARTCHAR char36
ENCODING 36
SWIDTH 548 0
DWIDTH 8 0
BBX 7 11 0 0
BITMAP
18
18
7E
DA
D8
7E
1A
DA
7E
18
18
ENDCHAR
STARTCHAR char37
ENCODING 37
SWIDTH 548 0
DWIDTH 8 0
BBX 6 8 1 2
BITMAP
EC
CC
18
30
30
60
CC
DC
ENDCHAR
STARTCHAR char38
ENCODING 38
SWIDTH 548 0
DWIDTH 8 0
BBX 7 8 0 2
BITMAP
70
D8
D8
70
F0
DE
CE
7C
ENDCHAR
STARTCHAR char39
ENCODING 39
SWIDTH 548 0
DWIDTH 8 0
BBX 3 3 1 8
BITMAP
60
60
C0
ENDCHAR
STARTCHAR char40
ENCODING 40
SWIDTH 548 0
DWIDTH 8 0
BBX 4 10 1 1
BITMAP
30
60
C0
C0
C0
C0
C0
C0
60
30
ENDCHAR
STARTCHAR char41
ENCODING 41
SWIDTH 548 0
DWIDTH 8 0
BBX 4 10 3 1
BITMAP
C0
60
30
30
30
30
30
30
60
C0
ENDCHAR
STARTCHAR char42
ENCODING 42
SWIDTH 548 0
DWIDTH 8 0
BBX 6 7 1 2
BITMAP
30
B4
FC
30
FC
B4
30
ENDCHAR
STARTCHAR char43
ENCODING 43
SWIDTH 548 0
DWIDTH 8 0
BBX 6 7 1 2
BITMAP
30
30
30
FC
30
30
30
ENDCHAR
STARTCHAR char44
ENCODING 44
SWIDTH 548 0
DWIDTH 8 0
BBX 4 3 1 1
BITMAP
70
60
C0
ENDCHAR
STARTCHAR char45
ENCODING 45
SWIDTH 548 0
DWIDTH 8 0
BBX 6 1 0 5
BITMAP
FC
ENDCHAR
STARTCHAR char46
ENCODING 46
SWIDTH 548 0
DWIDTH 8 0
BBX 2 2 2 2
BITMAP
C0
C0
ENDCHAR
STARTCHAR char47
ENCODING 47
SWIDTH 548 0
DWIDTH 8 0
BBX 6 10 1 2
BITMAP
0C
0C
18
18
30
30
60
60
C0
C0
ENDCHAR
STARTCHAR char48
ENCODING 48
SWIDTH 548 0
DWIDTH 8 0
BBX 6 9 1 2
BITMAP
78
CC
CC
CC
00
CC
CC
CC
78
ENDCHAR
STARTCHAR char49
ENCODING 49
SWIDTH 548 0
DWIDTH 8 0
BBX 2 9 4 2
BITMAP
C0
C0
C0
C0
00
C0
C0
C0
C0
ENDCHAR
STARTCHAR char50
ENCODING 50
SWIDTH 548 0
DWIDTH 8 0
BBX 6 9 1 2
BITMAP
78
0C
0C
0C
78
C0
C0
C0
78
ENDCHAR
STARTCHAR char51
ENCODING 51
SWIDTH 548 0
DWIDTH 8 0
BBX 5 9 1 2
BITMAP
F0
18
18
18
F0
18
18
18
F0
ENDCHAR
STARTCHAR char52
ENCODING 52
SWIDTH 548 0
DWIDTH 8 0
BBX 6 9 1 2
BITMAP
CC
CC
CC
CC
78
0C
0C
0C
0C
ENDCHAR
STARTCHAR char53
ENCODING 53
SWIDTH 548 0
DWIDTH 8 0
BBX 6 9 1 2
BITMAP
78
C0
C0
C0
78
0C
0C
0C
78
ENDCHAR
STARTCHAR char54
ENCODING 54
SWIDTH 548 0
DWIDTH 8 0
BBX 6 9 1 2
BITMAP
78
C0
C0
C0
78
CC
CC
CC
78
ENDCHAR
STARTCHAR char55
ENCODING 55
SWIDTH 548 0
DWIDTH 8 0
BBX 5 9 2 2
BITMAP
F0
18
18
18
00
18
18
18
18
ENDCHAR
STARTCHAR char56
ENCODING 56
SWIDTH 548 0
DWIDTH 8 0
BBX 6 9 1 2
BITMAP
78
CC
CC
CC
78
CC
CC
CC
78
ENDCHAR
STARTCHAR char57
ENCODING 57
SWIDTH 548 0
DWIDTH 8 0
BBX 6 9 1 2
BITMAP
78
CC
CC
CC
78
0C
0C
0C
0C
ENDCHAR
STARTCHAR char58
ENCODING 58
SWIDTH 548 0
DWIDTH 8 0
BBX 2 6 3 2
BITMAP
C0
C0
00
00
C0
C0
ENDCHAR
STARTCHAR char59
ENCODING 59
SWIDTH 548 0
DWIDTH 8 0
BBX 3 7 2 1
BITMAP
60
60
00
00
60
60
C0
ENDCHAR
STARTCHAR char60
ENCODING 60
SWIDTH 548 0
DWIDTH 8 0
BBX 6 9 1 1
BITMAP
0C
18
30
60
C0
60
30
18
0C
ENDCHAR
STARTCHAR char61
ENCODING 61
SWIDTH 548 0
DWIDTH 8 0
BBX 6 3 1 4
BITMAP
FC
00
FC
ENDCHAR
STARTCHAR char62
ENCODING 62
SWIDTH 548 0
DWIDTH 8 0
BBX 6 9 1 1
BITMAP
C0
60
30
18
0C
18
30
60
C0
ENDCHAR
STARTCHAR char63
ENCODING 63
SWIDTH 548 0
DWIDTH 8 0
BBX 6 8 1 2
BITMAP
F8
0C
0C
0C
78
60
00
60
ENDCHAR
STARTCHAR char64
ENCODING 64
SWIDTH 548 0
DWIDTH 8 0
BBX 6 8 1 2
BITMAP
78
CC
DC
FC
FC
F8
C0
7C
ENDCHAR
STARTCHAR char65
ENCODING 65
SWIDTH 548 0
DWIDTH 8 0
BBX 7 10 0 2
BITMAP
E0
30
18
0C
C6
C6
C6
FE
C6
C6
ENDCHAR
STARTCHAR char66
ENCODING 66
SWIDTH 548 0
DWIDTH 8 0
BBX 7 10 0 2
BITMAP
F8
0C
0C
FC
C6
C6
C6
C6
C6
FC
ENDCHAR
STARTCHAR char67
ENCODING 67
SWIDTH 548 0
DWIDTH 8 0
BBX 7 10 0 2
BITMAP
3E
60
C0
C0
C0
C0
C0
C0
C0
7E
ENDCHAR
STARTCHAR char68
ENCODING 68
SWIDTH 548 0
DWIDTH 8 0
BBX 7 10 0 2
BITMAP
E0
30
18
CC
C6
C6
C6
C6
CC
F8
ENDCHAR
STARTCHAR char69
ENCODING 69
SWIDTH 548 0
DWIDTH 8 0
BBX 7 10 0 2
BITMAP
FE
00
00
C0
C0
F8
C0
C0
C0
FE
ENDCHAR
STARTCHAR char70
ENCODING 70
SWIDTH 548 0
DWIDTH 8 0
BBX 7 10 0 2
BITMAP
FE
00
00
C0
C0
F8
C0
C0
C0
C0
ENDCHAR
STARTCHAR char71
ENCODING 71
SWIDTH 548 0
DWIDTH 8 0
BBX 7 10 0 2
BITMAP
7C
C6
C0
C0
C0
C0
DE
C6
C6
7C
ENDCHAR
STARTCHAR char72
ENCODING 72
SWIDTH 548 0
DWIDTH 8 0
BBX 7 10 0 2
BITMAP
C6
C6
C6
06
06
FE
C6
C6
C6
C6
ENDCHAR
STARTCHAR char73
ENCODING 73
SWIDTH 548 0
DWIDTH 8 0
BBX 6 10 0 2
BITMAP
FC
00
00
30
30
30
30
30
30
FC
ENDCHAR
STARTCHAR char74
ENCODING 74
SWIDTH 548 0
DWIDTH 8 0
BBX 6 10 0 2
BITMAP
FC
00
00
0C
0C
0C
0C
18
30
E0
ENDCHAR
STARTCHAR char75
ENCODING 75
SWIDTH 548 0
DWIDTH 8 0
BBX 7 10 0 2
BITMAP
C0
CC
D8
F0
60
F0
D8
CC
C6
C6
ENDCHAR
STARTCHAR char76
ENCODING 76
SWIDTH 548 0
DWIDTH 8 0
BBX 7 10 0 2
BITMAP
C0
C0
C0
C0
C0
C0
C0
C0
C0
FE
ENDCHAR
STARTCHAR char77
ENCODING 77
SWIDTH 548 0
DWIDTH 8 0
BBX 7 10 0 2
BITMAP
C6
EE
7E
3E
FE
DE
C6
C6
C6
C6
ENDCHAR
STARTCHAR char78
ENCODING 78
SWIDTH 548 0
DWIDTH 8 0
BBX 7 10 0 2
BITMAP
C6
E6
66
36
F6
DE
DE
CE
CE
C6
ENDCHAR
STARTCHAR char79
ENCODING 79
SWIDTH 548 0
DWIDTH 8 0
BBX 7 10 0 2
BITMAP
7C
06
06
C6
C6
C6
C6
C6
C6
7C
ENDCHAR
STARTCHAR char80
ENCODING 80
SWIDTH 548 0
DWIDTH 8 0
BBX 7 10 0 2
BITMAP
FC
06
06
06
FC
C0
C0
C0
C0
C0
ENDCHAR
STARTCHAR char81
ENCODING 81
SWIDTH 548 0
DWIDTH 8 0
BBX 7 11 0 1
BITMAP
7C
06
06
C6
C6
C6
C6
F6
DE
7C
06
ENDCHAR
STARTCHAR char82
ENCODING 82
SWIDTH 548 0
DWIDTH 8 0
BBX 7 10 0 2
BITMAP
F8
0C
0C
0C
FC
C6
C6
C6
C6
C6
ENDCHAR
STARTCHAR char83
ENCODING 83
SWIDTH 548 0
DWIDTH 8 0
BBX 7 10 0 2
BITMAP
7C
C6
C6
C0
78
0C
06
C6
C6
7C
ENDCHAR
STARTCHAR char84
ENCODING 84
SWIDTH 548 0
DWIDTH 8 0
BBX 7 10 0 2
BITMAP
FE
00
00
18
18
18
18
18
18
18
ENDCHAR
STARTCHAR char85
ENCODING 85
SWIDTH 548 0
DWIDTH 8 0
BBX 7 10 0 2
BITMAP
C6
C6
06
06
C6
C6
C6
C6
C6
7C
ENDCHAR
STARTCHAR char86
ENCODING 86
SWIDTH 548 0
DWIDTH 8 0
BBX 7 10 0 2
BITMAP
C6
C6
06
06
C6
CC
D8
F0
E0
C0
ENDCHAR
STARTCHAR char87
ENCODING 87
SWIDTH 548 0
DWIDTH 8 0
BBX 7 10 0 2
BITMAP
C6
C6
06
06
C6
C6
F6
E6
DE
C6
ENDCHAR
STARTCHAR char88
ENCODING 88
SWIDTH 548 0
DWIDTH 8 0
BBX 7 10 0 2
BITMAP
C6
C6
C6
6C
38
38
6C
C6
C6
C6
ENDCHAR
STARTCHAR char89
ENCODING 89
SWIDTH 548 0
DWIDTH 8 0
BBX 7 10 0 2
BITMAP
C6
C6
C6
66
3C
1C
0C
0C
0C
0C
ENDCHAR
STARTCHAR char90
ENCODING 90
SWIDTH 548 0
DWIDTH 8 0
BBX 7 10 0 2
BITMAP
FE
00
00
06
0C
18
30
60
C0
FE
ENDCHAR
STARTCHAR char91
ENCODING 91
SWIDTH 548 0
DWIDTH 8 0
BBX 5 9 1 2
BITMAP
F8
C0
C0
C0
C0
C0
C0
C0
F8
ENDCHAR
STARTCHAR char92
ENCODING 92
SWIDTH 548 0
DWIDTH 8 0
BBX 6 10 1 2
BITMAP
C0
C0
60
60
30
30
18
18
0C
0C
ENDCHAR
STARTCHAR char93
ENCODING 93
SWIDTH 548 0
DWIDTH 8 0
BBX 5 9 2 2
BITMAP
F8
18
18
18
18
18
18
18
F8
ENDCHAR
STARTCHAR char94
ENCODING 94
SWIDTH 548 0
DWIDTH 8 0
BBX 6 3 1 7
BITMAP
30
78
CC
ENDCHAR
STARTCHAR char95
ENCODING 95
SWIDTH 548 0
DWIDTH 8 0
BBX 7 1 0 2
BITMAP
FE
ENDCHAR
STARTCHAR char96
ENCODING 96
SWIDTH 548 0
DWIDTH 8 0
BBX 3 3 1 7
BITMAP
C0
C0
60
ENDCHAR
STARTCHAR char97
ENCODING 97
SWIDTH 548 0
DWIDTH 8 0
BBX 7 6 0 2
BITMAP
3C
06
C6
C6
CC
7E
ENDCHAR
STARTCHAR char98
ENCODING 98
SWIDTH 548 0
DWIDTH 8 0
BBX 7 10 0 2
BITMAP
C0
C0
C0
C0
7C
06
C6
C6
C6
7C
ENDCHAR
STARTCHAR char99
ENCODING 99
SWIDTH 548 0
DWIDTH 8 0
BBX 6 6 0 2
BITMAP
7C
C0
C0
C0
C0
7C
ENDCHAR
STARTCHAR char100
ENCODING 100
SWIDTH 548 0
DWIDTH 8 0
BBX 7 10 0 2
BITMAP
06
06
06
06
7C
C0
C6
C6
C6
7E
ENDCHAR
STARTCHAR char101
ENCODING 101
SWIDTH 548 0
DWIDTH 8 0
BBX 7 6 0 2
BITMAP
7C
C6
FE
FC
C0
7E
ENDCHAR
STARTCHAR char102
ENCODING 102
SWIDTH 548 0
DWIDTH 8 0
BBX 7 10 0 2
BITMAP
1E
30
30
30
FC
30
30
30
30
30
ENDCHAR
STARTCHAR char103
ENCODING 103
SWIDTH 548 0
DWIDTH 8 0
BBX 7 8 0 0
BITMAP
7C
C6
C6
C6
7E
06
06
FC
ENDCHAR
STARTCHAR char104
ENCODING 104
SWIDTH 548 0
DWIDTH 8 0
BBX 7 10 0 2
BITMAP
C0
C0
C0
00
7C
C6
C6
C6
C6
C6
ENDCHAR
STARTCHAR char105
ENCODING 105
SWIDTH 548 0
DWIDTH 8 0
BBX 3 10 2 2
BITMAP
60
60
00
00
E0
60
60
60
60
60
ENDCHAR
STARTCHAR char106
ENCODING 106
SWIDTH 548 0
DWIDTH 8 0
BBX 6 12 0 0
BITMAP
0C
0C
00
00
1C
0C
0C
0C
0C
0C
1C
F8
ENDCHAR
STARTCHAR char107
ENCODING 107
SWIDTH 548 0
DWIDTH 8 0
BBX 7 9 0 2
BITMAP
C0
C0
D8
30
60
F0
D8
CC
CE
ENDCHAR
STARTCHAR char108
ENCODING 108
SWIDTH 548 0
DWIDTH 8 0
BBX 5 9 1 2
BITMAP
E0
60
60
60
00
60
60
60
F8
ENDCHAR
STARTCHAR char109
ENCODING 109
SWIDTH 548 0
DWIDTH 8 0
BBX 7 6 0 2
BITMAP
F8
3C
DE
F6
DE
F6
ENDCHAR
STARTCHAR char110
ENCODING 110
SWIDTH 548 0
DWIDTH 8 0
BBX 7 6 0 2
BITMAP
7C
06
C6
C6
C6
C6
ENDCHAR
STARTCHAR char111
ENCODING 111
SWIDTH 548 0
DWIDTH 8 0
BBX 7 6 0 2
BITMAP
7C
06
C6
C6
C6
7C
ENDCHAR
STARTCHAR char112
ENCODING 112
SWIDTH 548 0
DWIDTH 8 0
BBX 7 8 0 0
BITMAP
FC
06
06
06
FC
C0
C0
C0
ENDCHAR
STARTCHAR char113
ENCODING 113
SWIDTH 548 0
DWIDTH 8 0
BBX 7 8 0 0
BITMAP
7E
C0
C0
C0
7E
06
06
06
ENDCHAR
STARTCHAR char114
ENCODING 114
SWIDTH 548 0
DWIDTH 8 0
BBX 7 6 0 2
BITMAP
3E
60
C0
C0
C0
C0
ENDCHAR
STARTCHAR char115
ENCODING 115
SWIDTH 548 0
DWIDTH 8 0
BBX 7 6 0 2
BITMAP
7E
C0
7C
06
06
FC
ENDCHAR
STARTCHAR char116
ENCODING 116
SWIDTH 548 0
DWIDTH 8 0
BBX 7 9 0 2
BITMAP
30
30
00
FE
30
30
30
36
1C
ENDCHAR
STARTCHAR char117
ENCODING 117
SWIDTH 548 0
DWIDTH 8 0
BBX 7 6 0 2
BITMAP
C6
C6
C6
C6
C6
7C
ENDCHAR
STARTCHAR char118
ENCODING 118
SWIDTH 548 0
DWIDTH 8 0
BBX 7 6 0 2
BITMAP
C6
CC
D8
F0
E0
C0
ENDCHAR
STARTCHAR char119
ENCODING 119
SWIDTH 548 0
DWIDTH 8 0
BBX 7 6 0 2
BITMAP
C6
C6
DE
FE
FE
DE
ENDCHAR
STARTCHAR char120
ENCODING 120
SWIDTH 548 0
DWIDTH 8 0
BBX 7 6 0 2
BITMAP
C6
C6
3C
FE
C6
C6
ENDCHAR
STARTCHAR char121
ENCODING 121
SWIDTH 548 0
DWIDTH 8 0
BBX 7 8 0 0
BITMAP
C6
C6
C6
C6
C6
7C
0C
F8
ENDCHAR
STARTCHAR char122
ENCODING 122
SWIDTH 548 0
DWIDTH 8 0
BBX 7 6 0 2
BITMAP
FE
06
3E
78
C0
FE
ENDCHAR
STARTCHAR char123
ENCODING 123
SWIDTH 548 0
DWIDTH 8 0
BBX 6 10 1 1
BITMAP
3C
60
60
60
C0
C0
60
60
60
3C
ENDCHAR
STARTCHAR char124
ENCODING 124
SWIDTH 548 0
DWIDTH 8 0
BBX 2 10 3 1
BITMAP
C0
C0
C0
C0
00
00
C0
C0
C0
C0
ENDCHAR
STARTCHAR char125
ENCODING 125
SWIDTH 548 0
DWIDTH 8 0
BBX 6 10 1 1
BITMAP
F0
18
18
18
0C
0C
18
18
18
F0
ENDCHAR
STARTCHAR char126
ENCODING 126
SWIDTH 548 0
DWIDTH 8 0
BBX 7 2 0 7
BITMAP
76
DC
ENDCHAR
STARTCHAR char33
ENCODING 161
SWIDTH 548 0
DWIDTH 8 0
BBX 2 9 3 2
BITMAP
C0
C0
00
C0
C0
C0
C0
C0
C0
ENDCHAR
STARTCHAR char155
ENCODING 162
SWIDTH 548 0
DWIDTH 8 0
BBX 7 8 0 1
BITMAP
18
7E
D8
D8
D8
D8
7E
18
ENDCHAR
STARTCHAR char156
ENCODING 163
SWIDTH 548 0
DWIDTH 8 0
BBX 7 10 0 1
BITMAP
3C
66
66
60
60
60
FC
60
60
FE
ENDCHAR
STARTCHAR char164
ENCODING 164
SWIDTH 548 0
DWIDTH 8 0
BBX 7 6 1 5
BITMAP
C6
7C
6C
6C
7C
C6
ENDCHAR
STARTCHAR char157
ENCODING 165
SWIDTH 548 0
DWIDTH 8 0
BBX 6 12 1 0
BITMAP
CC
CC
CC
CC
78
30
FC
30
FC
30
78
30
ENDCHAR
STARTCHAR char133
ENCODING 166
SWIDTH 548 0
DWIDTH 8 0
BBX 2 9 1 1
BITMAP
C0
C0
C0
C0
00
C0
C0
C0
C0
ENDCHAR
STARTCHAR char159
ENCODING 167
SWIDTH 548 0
DWIDTH 8 0
BBX 7 10 0 2
BITMAP
0E
1A
18
3C
66
66
3C
18
D8
70
ENDCHAR
STARTCHAR char168
ENCODING 168
SWIDTH 548 0
DWIDTH 8 0
BBX 5 1 2 10
BITMAP
D8
ENDCHAR
STARTCHAR char99
ENCODING 169
SWIDTH 548 0
DWIDTH 8 0
BBX 7 9 0 2
BITMAP
78
C6
1E
F6
F6
F6
D8
C6
7C
ENDCHAR
STARTCHAR char166
ENCODING 170
SWIDTH 548 0
DWIDTH 8 0
BBX 6 7 0 2
BITMAP
7C
CC
CC
CC
7C
00
FC
ENDCHAR
STARTCHAR char174
ENCODING 171
SWIDTH 548 0
DWIDTH 8 0
BBX 7 5 0 3
BITMAP
36
6C
D8
6C
36
ENDCHAR
STARTCHAR char170
ENCODING 172
SWIDTH 548 0
DWIDTH 8 0
BBX 6 4 1 2
BITMAP
FC
0C
0C
0C
ENDCHAR
STARTCHAR char99
ENCODING 174
SWIDTH 548 0
DWIDTH 8 0
BBX 7 9 0 2
BITMAP
78
C6
7E
6E
76
6E
68
C6
7C
ENDCHAR
STARTCHAR char175
ENCODING 175
SWIDTH 548 0
DWIDTH 8 0
BBX 6 1 1 12
BITMAP
FC
ENDCHAR
STARTCHAR char167
ENCODING 176
SWIDTH 548 0
DWIDTH 8 0
BBX 6 5 1 4
BITMAP
78
CC
CC
CC
78
ENDCHAR
STARTCHAR char241
ENCODING 177
SWIDTH 548 0
DWIDTH 8 0
BBX 6 6 1 4
BITMAP
30
30
FC
30
00
FC
ENDCHAR
STARTCHAR char178
ENCODING 178
SWIDTH 548 0
DWIDTH 8 0
BBX 4 5 1 7
BITMAP
F0
30
F0
C0
F0
ENDCHAR
STARTCHAR char178
ENCODING 179
SWIDTH 548 0
DWIDTH 8 0
BBX 4 5 1 7
BITMAP
F0
30
70
30
F0
ENDCHAR
STARTCHAR char180
ENCODING 180
SWIDTH 548 0
DWIDTH 8 0
BBX 3 2 2 10
BITMAP
60
C0
ENDCHAR
STARTCHAR char117
ENCODING 181
SWIDTH 548 0
DWIDTH 8 0
BBX 7 8 0 0
BITMAP
C6
C6
C6
C6
C6
FC
C0
C0
ENDCHAR
STARTCHAR char113
ENCODING 182
SWIDTH 548 0
DWIDTH 8 0
BBX 7 8 0 0
BITMAP
7E
D8
D8
D8
7E
1A
1A
1A
ENDCHAR
STARTCHAR char183
ENCODING 183
SWIDTH 548 0
DWIDTH 8 0
BBX 3 3 2 6
BITMAP
E0
E0
E0
ENDCHAR
STARTCHAR char184
ENCODING 184
SWIDTH 548 0
DWIDTH 8 0
BBX 4 3 2 1
BITMAP
60
30
F0
ENDCHAR
STARTCHAR char178
ENCODING 185
SWIDTH 548 0
DWIDTH 8 0
BBX 3 5 1 7
BITMAP
E0
60
60
60
60
ENDCHAR
STARTCHAR char167
ENCODING 186
SWIDTH 548 0
DWIDTH 8 0
BBX 6 7 1 2
BITMAP
78
CC
CC
CC
78
00
FC
ENDCHAR
STARTCHAR char174
ENCODING 187
SWIDTH 548 0
DWIDTH 8 0
BBX 7 5 0 3
BITMAP
36
6C
D8
6C
36
ENDCHAR
STARTCHAR char172
ENCODING 188
SWIDTH 548 0
DWIDTH 8 0
BBX 6 12 1 1
BITMAP
30
30
30
30
00
FC
00
48
48
78
18
18
ENDCHAR
STARTCHAR char171
ENCODING 189
SWIDTH 548 0
DWIDTH 8 0
BBX 6 12 1 1
BITMAP
30
30
30
30
00
FC
00
78
18
78
60
78
ENDCHAR
STARTCHAR char172
ENCODING 190
SWIDTH 548 0
DWIDTH 8 0
BBX 6 13 1 1
BITMAP
78
18
38
18
78
00
FC
00
48
48
78
18
18
ENDCHAR
STARTCHAR char168
ENCODING 191
SWIDTH 548 0
DWIDTH 8 0
BBX 5 9 1 2
BITMAP
30
00
30
30
60
C0
C0
C0
78
ENDCHAR
STARTCHAR char196
ENCODING 192
SWIDTH 548 0
DWIDTH 8 0
BBX 7 12 0 2
BITMAP
30
18
EC
30
18
0C
C6
C6
C6
FE
C6
C6
ENDCHAR
STARTCHAR char196
ENCODING 193
SWIDTH 548 0
DWIDTH 8 0
BBX 7 12 0 2
BITMAP
02
06
EC
30
18
0C
C6
C6
C6
FE
C6
C6
ENDCHAR
STARTCHAR char196
ENCODING 194
SWIDTH 548 0
DWIDTH 8 0
BBX 7 12 0 2
BITMAP
1C
36
E2
30
18
0C
C6
C6
C6
FE
C6
C6
ENDCHAR
STARTCHAR char196
ENCODING 195
SWIDTH 548 0
DWIDTH 8 0
BBX 7 12 0 2
BITMAP
0A
14
E0
30
18
0C
C6
C6
C6
FE
C6
C6
ENDCHAR
STARTCHAR char196
ENCODING 196
SWIDTH 548 0
DWIDTH 8 0
BBX 7 12 0 2
BITMAP
6C
00
E0
30
18
0C
C6
C6
C6
FE
C6
C6
ENDCHAR
STARTCHAR char197
ENCODING 197
SWIDTH 548 0
DWIDTH 8 0
BBX 7 12 0 2
BITMAP
04
0A
E4
30
18
0C
C6
C6
C6
FE
C6
C6
ENDCHAR
STARTCHAR char197
ENCODING 198
SWIDTH 548 0
DWIDTH 8 0
BBX 7 11 0 2
BITMAP
E0
1E
D8
D8
D8
DC
DC
D8
F8
D8
DE
ENDCHAR
STARTCHAR char67
ENCODING 199
SWIDTH 548 0
DWIDTH 8 0
BBX 7 11 0 1
BITMAP
3E
60
C0
C0
C0
C0
C0
C0
D8
7E
18
ENDCHAR
STARTCHAR char69
ENCODING 200
SWIDTH 548 0
DWIDTH 8 0
BBX 7 12 0 2
BITMAP
30
18
FE
00
00
C0
C0
F8
C0
C0
C0
FE
ENDCHAR
STARTCHAR char69
ENCODING 201
SWIDTH 548 0
DWIDTH 8 0
BBX 7 12 0 2
BITMAP
18
30
FE
00
00
C0
C0
F8
C0
C0
C0
FE
ENDCHAR
STARTCHAR char69
ENCODING 202
SWIDTH 548 0
DWIDTH 8 0
BBX 7 12 0 2
BITMAP
38
6C
00
FE
00
00
C0
F8
C0
C0
C0
FE
ENDCHAR
STARTCHAR char69
ENCODING 203
SWIDTH 548 0
DWIDTH 8 0
BBX 7 12 0 2
BITMAP
6C
00
FE
00
00
C0
C0
F8
C0
C0
C0
FE
ENDCHAR
STARTCHAR char73
ENCODING 204
SWIDTH 548 0
DWIDTH 8 0
BBX 6 12 0 2
BITMAP
60
30
FC
00
00
30
30
30
30
30
30
FC
ENDCHAR
STARTCHAR char73
ENCODING 205
SWIDTH 548 0
DWIDTH 8 0
BBX 6 12 0 2
BITMAP
18
30
FC
00
00
30
30
30
30
30
30
FC
ENDCHAR
STARTCHAR char73
ENCODING 206
SWIDTH 548 0
DWIDTH 8 0
BBX 6 12 0 2
BITMAP
30
78
00
FC
00
00
30
30
30
30
30
FC
ENDCHAR
STARTCHAR char73
ENCODING 207
SWIDTH 548 0
DWIDTH 8 0
BBX 6 12 0 2
BITMAP
6C
00
FC
00
00
30
30
30
30
30
30
FC
ENDCHAR
STARTCHAR char68
ENCODING 208
SWIDTH 548 0
DWIDTH 8 0
BBX 7 10 0 2
BITMAP
E0
30
18
CC
C6
C6
E6
C6
CC
F8
ENDCHAR
STARTCHAR char78
ENCODING 209
SWIDTH 548 0
DWIDTH 8 0
BBX 7 12 0 2
BITMAP
14
28
C0
E6
66
36
F6
DE
DE
CE
CE
C6
ENDCHAR
STARTCHAR char214
ENCODING 210
SWIDTH 548 0
DWIDTH 8 0
BBX 7 12 0 2
BITMAP
60
30
7C
06
06
C6
C6
C6
C6
C6
C6
7C
ENDCHAR
STARTCHAR char214
ENCODING 211
SWIDTH 548 0
DWIDTH 8 0
BBX 7 12 0 2
BITMAP
0C
18
7C
06
06
C6
C6
C6
C6
C6
C6
7C
ENDCHAR
STARTCHAR char214
ENCODING 212
SWIDTH 548 0
DWIDTH 8 0
BBX 7 12 0 2
BITMAP
38
6C
00
7C
06
06
C6
C6
C6
C6
C6
7C
ENDCHAR
STARTCHAR char214
ENCODING 213
SWIDTH 548 0
DWIDTH 8 0
BBX 7 12 0 2
BITMAP
14
28
00
7C
06
06
C6
C6
C6
C6
C6
7C
ENDCHAR
STARTCHAR char214
ENCODING 214
SWIDTH 548 0
DWIDTH 8 0
BBX 7 11 0 2
BITMAP
6C
00
7C
06
06
C6
C6
C6
C6
C6
7C
ENDCHAR
STARTCHAR char230
ENCODING 215
SWIDTH 548 0
DWIDTH 8 0
BBX 4 3 2 5
BITMAP
F0
60
F0
ENDCHAR
STARTCHAR char237
ENCODING 216
SWIDTH 548 0
DWIDTH 8 0
BBX 7 10 0 0
BITMAP
06
06
7C
DE
F6
DE
F6
7C
C0
C0
ENDCHAR
STARTCHAR char85
ENCODING 217
SWIDTH 548 0
DWIDTH 8 0
BBX 7 12 0 2
BITMAP
30
18
C6
C6
06
06
C6
C6
C6
C6
C6
7C
ENDCHAR
STARTCHAR char85
ENCODING 218
SWIDTH 548 0
DWIDTH 8 0
BBX 7 12 0 2
BITMAP
18
30
C6
C6
06
06
C6
C6
C6
C6
C6
7C
ENDCHAR
STARTCHAR char85
ENCODING 219
SWIDTH 548 0
DWIDTH 8 0
BBX 7 12 0 2
BITMAP
18
3C
C0
C6
06
06
C6
C6
C6
C6
C6
7C
ENDCHAR
STARTCHAR char85
ENCODING 220
SWIDTH 548 0
DWIDTH 8 0
BBX 7 11 0 2
BITMAP
6C
C0
C6
06
06
C6
C6
C6
C6
C6
7C
ENDCHAR
STARTCHAR char89
ENCODING 221
SWIDTH 548 0
DWIDTH 8 0
BBX 7 12 0 2
BITMAP
18
30
C6
C6
C6
66
3C
1C
0C
0C
0C
0C
ENDCHAR
STARTCHAR char112
ENCODING 222
SWIDTH 548 0
DWIDTH 8 0
BBX 7 10 0 0
BITMAP
C0
C0
C0
FC
06
06
FC
C0
C0
C0
ENDCHAR
STARTCHAR char225
ENCODING 223
SWIDTH 548 0
DWIDTH 8 0
BBX 6 9 0 1
BITMAP
78
CC
D8
F0
D8
F0
C0
C0
C0
ENDCHAR
STARTCHAR char97
ENCODING 224
SWIDTH 548 0
DWIDTH 8 0
BBX 7 10 0 2
BITMAP
30
18
0C
00
3C
06
C6
C6
CC
7E
ENDCHAR
STARTCHAR char97
ENCODING 225
SWIDTH 548 0
DWIDTH 8 0
BBX 7 10 0 2
BITMAP
06
0C
18
00
3C
06
C6
C6
CC
7E
ENDCHAR
STARTCHAR char97
ENCODING 226
SWIDTH 548 0
DWIDTH 8 0
BBX 7 9 0 2
BITMAP
38
6C
00
3C
06
C6
C6
CC
7E
ENDCHAR
STARTCHAR char97
ENCODING 227
SWIDTH 548 0
DWIDTH 8 0
BBX 7 9 0 2
BITMAP
1E
3C
00
3C
06
C6
C6
CC
7E
ENDCHAR
STARTCHAR char97
ENCODING 228
SWIDTH 548 0
DWIDTH 8 0
BBX 7 9 0 2
BITMAP
6C
00
00
3C
06
C6
C6
CC
7E
ENDCHAR
STARTCHAR char97
ENCODING 229
SWIDTH 548 0
DWIDTH 8 0
BBX 7 10 0 2
BITMAP
10
28
10
00
3C
06
C6
C6
CC
7E
ENDCHAR
STARTCHAR char224
ENCODING 230
SWIDTH 548 0
DWIDTH 8 0
BBX 7 6 0 2
BITMAP
7C
B6
BE
BC
B0
7E
ENDCHAR
STARTCHAR char99
ENCODING 231
SWIDTH 548 0
DWIDTH 8 0
BBX 6 7 0 1
BITMAP
7C
C0
C0
C0
F0
7C
30
ENDCHAR
STARTCHAR char101
ENCODING 232
SWIDTH 548 0
DWIDTH 8 0
BBX 7 9 0 2
BITMAP
30
18
00
7C
C6
FE
FC
C0
7E
ENDCHAR
STARTCHAR char101
ENCODING 233
SWIDTH 548 0
DWIDTH 8 0
BBX 7 9 0 2
BITMAP
0C
18
00
7C
C6
FE
FC
C0
7E
ENDCHAR
STARTCHAR char101
ENCODING 234
SWIDTH 548 0
DWIDTH 8 0
BBX 7 9 0 2
BITMAP
38
6C
00
7C
C6
FE
FC
C0
7E
ENDCHAR
STARTCHAR char101
ENCODING 235
SWIDTH 548 0
DWIDTH 8 0
BBX 7 9 0 2
BITMAP
6C
00
00
7C
C6
FE
FC
C0
7E
ENDCHAR
STARTCHAR char105
ENCODING 236
SWIDTH 548 0
DWIDTH 8 0
BBX 3 10 2 2
BITMAP
C0
60
00
00
E0
60
60
60
60
60
ENDCHAR
STARTCHAR char105
ENCODING 237
SWIDTH 548 0
DWIDTH 8 0
BBX 4 10 2 2
BITMAP
30
60
00
00
E0
60
60
60
60
60
ENDCHAR
STARTCHAR char105
ENCODING 238
SWIDTH 548 0
DWIDTH 8 0
BBX 4 10 2 2
BITMAP
60
F0
00
00
E0
60
60
60
60
60
ENDCHAR
STARTCHAR char105
ENCODING 239
SWIDTH 548 0
DWIDTH 8 0
BBX 5 9 1 2
BITMAP
D8
00
00
70
30
30
30
30
30
ENDCHAR
STARTCHAR char240
ENCODING 240
SWIDTH 548 0
DWIDTH 8 0
BBX 7 9 0 2
BITMAP
6C
6C
78
C6
7E
C6
C6
C6
FE
ENDCHAR
STARTCHAR char110
ENCODING 241
SWIDTH 548 0
DWIDTH 8 0
BBX 7 9 0 2
BITMAP
3C
78
00
7C
06
C6
C6
C6
C6
ENDCHAR
STARTCHAR char111
ENCODING 242
SWIDTH 548 0
DWIDTH 8 0
BBX 7 9 0 2
BITMAP
30
18
00
7C
06
C6
C6
C6
7C
ENDCHAR
STARTCHAR char111
ENCODING 243
SWIDTH 548 0
DWIDTH 8 0
BBX 7 9 0 2
BITMAP
0C
18
00
7C
06
C6
C6
C6
7C
ENDCHAR
STARTCHAR char111
ENCODING 244
SWIDTH 548 0
DWIDTH 8 0
BBX 7 9 0 2
BITMAP
38
6C
00
7C
06
C6
C6
C6
7C
ENDCHAR
STARTCHAR char111
ENCODING 245
SWIDTH 548 0
DWIDTH 8 0
BBX 7 9 0 2
BITMAP
1E
3C
00
7C
06
C6
C6
C6
7C
ENDCHAR
STARTCHAR char246
ENCODING 246
SWIDTH 548 0
DWIDTH 8 0
BBX 7 8 0 2
BITMAP
6C
00
7C
06
C6
C6
C6
7C
ENDCHAR
STARTCHAR char247
ENCODING 247
SWIDTH 548 0
DWIDTH 8 0
BBX 6 5 1 5
BITMAP
30
00
FC
00
30
ENDCHAR
STARTCHAR char236
ENCODING 248
SWIDTH 548 0
DWIDTH 8 0
BBX 7 8 0 1
BITMAP
06
7C
F6
DE
F6
DE
7C
C0
ENDCHAR
STARTCHAR char117
ENCODING 249
SWIDTH 548 0
DWIDTH 8 0
BBX 7 9 0 2
BITMAP
30
18
00
C6
C6
C6
C6
C6
7C
ENDCHAR
STARTCHAR char117
ENCODING 250
SWIDTH 548 0
DWIDTH 8 0
BBX 7 9 0 2
BITMAP
0C
18
00
C6
C6
C6
C6
C6
7C
ENDCHAR
STARTCHAR char117
ENCODING 251
SWIDTH 548 0
DWIDTH 8 0
BBX 7 9 0 2
BITMAP
18
3C
00
C6
C6
C6
C6
C6
7C
ENDCHAR
STARTCHAR char117
ENCODING 252
SWIDTH 548 0
DWIDTH 8 0
BBX 7 9 0 2
BITMAP
6C
00
00
C6
C6
C6
C6
C6
7C
ENDCHAR
STARTCHAR char121
ENCODING 253
SWIDTH 548 0
DWIDTH 8 0
BBX 7 10 0 0
BITMAP
18
30
C6
C6
C6
C6
C6
7C
0C
F8
ENDCHAR
STARTCHAR char112
ENCODING 254
SWIDTH 548 0
DWIDTH 8 0
BBX 7 11 0 0
BITMAP
C0
C0
C0
FC
06
06
06
FC
C0
C0
C0
ENDCHAR
STARTCHAR char121
ENCODING 255
SWIDTH 548 0
DWIDTH 8 0
BBX 7 10 0 0
BITMAP
6C
00
C6
C6
C6
C6
C6
7C
0C
F8
ENDCHAR
ENDFONT
